<svg width="80" height="80" viewBox="0 0 80 80" fill="none" xmlns="http://www.w3.org/2000/svg">
<g clip-path="url(#clip0_9047_28581)">
<path fill-rule="evenodd" clip-rule="evenodd" d="M75.5376 46.326C75.2035 48.1307 74.758 49.8473 74.2753 51.476L74.2382 51.564L71.7507 57.9464C71.6022 58.2546 71.4165 58.6067 71.268 58.9149C71.1938 59.0469 71.1567 59.1789 71.0824 59.267C64.9194 70.6674 49.7297 70.9747 44.8649 71.5222C27.4566 73.4813 15.2069 69.3909 8.59833 59.7071C8.48695 59.5751 8.37558 59.399 8.30132 59.223C7.89293 58.6067 7.48453 57.9464 7.11327 57.2862C6.70488 56.5819 6.29648 55.8336 5.92521 55.0853C4.44015 52.0482 4.18027 48.4388 4.03176 44.6093C3.17785 20.0038 19.7363 20.752 30.0946 18.9914C39.8589 17.3627 40.9356 2.96917 58.8306 6.57857C80.3641 10.9803 75.5376 46.326 75.5376 46.326Z" fill="#D5F7F4"/>
<g clip-path="url(#clip1_9047_28581)">
<path d="M7.43405 39.0925L42.2092 58.5492L40.9434 74.0001L16.4656 60.2294C14.5425 59.1458 13.1062 57.3681 12.4489 55.2618L7.42188 39.0803L7.43405 39.0925Z" fill="#FEC102"/>
<path d="M42.2088 58.5492L67.3803 43.4514L61.9882 59.3041C61.2457 61.5079 59.712 63.3586 57.6915 64.5031L40.9551 74.0123L42.221 58.5614L42.2088 58.5492Z" fill="#FF9900"/>
<path d="M50.6439 33.4793L36.0376 15.7394C35.7942 15.435 35.356 15.3498 35.0152 15.5324L7.43359 29.8145" stroke="#3C9547" stroke-width="4" stroke-linecap="round" stroke-linejoin="round"/>
<path d="M32.7891 24.0068L34.0063 47.6276L47.3832 55.4444L67.3817 43.4392L32.7891 24.0068Z" fill="#E87314"/>
<path d="M7.43359 39.0925L32.7877 24.0068L34.0049 47.6276L28.5762 50.915L7.43359 39.0925Z" fill="#FF7F17"/>
<path d="M28.5762 50.9149L34.0048 47.6274L47.3818 55.4442L42.2087 58.549L28.5762 50.9149Z" fill="#D86A11"/>
<path d="M6.38723 37.9845L6.7889 37.4244C7.38532 36.5965 8.52948 36.353 9.40586 36.8887L43.4507 57.2707C44.3393 57.8065 44.6679 58.9266 44.2054 59.852C43.6942 60.8626 42.4405 61.2522 41.4546 60.6799L7.00799 40.858C5.99772 40.2735 5.7056 38.9464 6.38723 37.9845Z" fill="#FFE802"/>
<path d="M30.9751 23.9459L31.3768 23.3859C31.9732 22.5579 33.1174 22.3144 33.9938 22.8501L68.0386 43.2322C68.9272 43.7679 69.2558 44.8881 68.7933 45.8134C68.2821 46.824 67.0284 47.2136 66.0424 46.6414L31.5959 26.8072C30.5856 26.2228 30.2935 24.8956 30.9751 23.9338V23.9459Z" fill="#FFE802"/>
<path d="M41.8453 57.6969L66.1404 43.6827C66.9438 43.22 67.9541 43.4513 68.4896 44.1941L68.6844 44.4619C69.293 45.3264 69.0252 46.5318 68.1001 47.0432L43.6102 60.7895C42.8677 61.2034 41.9427 61.0452 41.3827 60.3998C40.6524 59.5476 40.8837 58.2569 41.8453 57.6969Z" fill="#FFE802"/>
<path d="M7.59183 36.8155L31.887 22.8013C32.6903 22.3387 33.7006 22.57 34.2362 23.3127L34.4309 23.5806C35.0395 24.445 34.7717 25.6504 33.8467 26.1618L9.34459 39.9203C8.6021 40.3343 7.67703 40.176 7.11712 39.5307C6.38681 38.6784 6.61807 37.3878 7.57966 36.8277L7.59183 36.8155Z" fill="#FFE802"/>
<path d="M20.8474 52.2422C20.5065 52.8875 18.4008 53.1919 16.5263 52.1935C14.6518 51.2073 13.7146 49.3079 14.0432 48.6625C14.3841 48.0172 15.869 48.8817 17.7557 49.8558C19.6423 50.8298 21.176 51.5847 20.8474 52.23V52.2422Z" fill="#FF9900"/>
<path d="M28.9553 57.4412C28.5658 58.0622 26.46 58.2205 24.6464 57.1125C22.845 56.0045 22.0294 54.0564 22.4068 53.4354C22.7841 52.8145 24.2204 53.7764 26.034 54.8722C27.8476 55.968 29.3448 56.8203 28.9674 57.4412H28.9553Z" fill="#FF9900"/>
<path d="M37.6931 62.1287C37.3522 62.774 35.2465 63.0784 33.372 62.08C31.4975 61.0937 30.5603 59.1943 30.8889 58.549C31.2298 57.9037 32.7147 58.7682 34.6014 59.7422C36.488 60.7163 38.0217 61.4712 37.6931 62.1165V62.1287Z" fill="#FF9900"/>
<path d="M22.7595 58.9875C22.4186 59.6329 20.3129 59.9372 18.4384 58.9388C16.5639 57.9526 15.6267 56.0532 15.9554 55.4079C16.2962 54.7626 17.7811 55.6271 19.6678 56.6011C21.5544 57.5752 23.0881 58.3301 22.7595 58.9754V58.9875Z" fill="#FF9900"/>
<path d="M30.8654 64.1741C30.4759 64.7951 28.3702 64.9534 26.5566 63.8454C24.7551 62.7374 23.9396 60.7893 24.3169 60.1684C24.6942 59.5474 26.1305 60.5093 27.9442 61.6051C29.7578 62.7009 31.2549 63.5532 30.8776 64.1741H30.8654Z" fill="#FF9900"/>
<path d="M39.6052 68.874C39.2643 69.5193 37.1586 69.8237 35.2841 68.8253C33.4097 67.8391 32.4724 65.9397 32.8011 65.2944C33.1419 64.6491 34.6268 65.5135 36.5135 66.4876C38.4001 67.4616 39.9338 68.2165 39.6052 68.8618V68.874Z" fill="#FF9900"/>
<path d="M40.5661 38.1548C40.2253 38.8001 38.1195 39.1045 36.2451 38.1061C34.3706 37.1199 33.4334 35.2204 33.762 34.5751C34.1028 33.9298 35.5878 34.7943 37.4744 35.7684C39.3611 36.7424 40.8947 37.4973 40.5661 38.1426V38.1548Z" fill="#FEC102"/>
<path d="M48.6721 43.3416C48.2826 43.9626 46.1768 44.1209 44.3632 43.0129C42.5617 41.9049 41.7462 39.9568 42.1236 39.3358C42.5009 38.7149 43.9372 39.6767 45.7508 40.7726C47.5644 41.8684 49.0616 42.7207 48.6842 43.3416H48.6721Z" fill="#FEC102"/>
<path d="M57.4118 48.0415C57.071 48.6868 54.9652 48.9912 53.0908 47.9928C51.2163 47.0066 50.2791 45.1072 50.6077 44.4619C50.9485 43.8166 52.4335 44.681 54.3201 45.6551C56.2068 46.6291 57.7405 47.384 57.4118 48.0293V48.0415Z" fill="#FEC102"/>
<path d="M42.4782 46.2029C42.1374 46.8482 40.0317 47.1526 38.1572 46.1542C36.2827 45.1679 35.3455 43.2685 35.6741 42.6232C36.0149 41.9779 37.4999 42.8424 39.3865 43.8164C41.2732 44.7905 42.8069 45.5454 42.4782 46.1907V46.2029Z" fill="#FEC102"/>
<path d="M50.5842 51.4019C50.1947 52.0229 48.0889 52.1812 46.2753 51.0732C44.4739 49.9652 43.6583 48.0171 44.0357 47.3961C44.413 46.7752 45.8493 47.7371 47.6629 48.8329C49.4765 49.9287 50.9737 50.781 50.5963 51.4019H50.5842Z" fill="#FEC102"/>
<path d="M52.0572 59.3162C52.398 59.9615 51.4729 61.873 49.5985 62.8714C47.724 63.8698 45.6304 63.5898 45.2896 62.9445C44.9488 62.2992 46.4946 61.5565 48.3569 60.5459C50.2192 59.5353 51.7042 58.683 52.0572 59.3162Z" fill="#D67C07"/>
<path d="M60.8209 58.9753C61.1617 59.6207 60.2366 61.5322 58.3621 62.5306C56.4876 63.529 54.3941 63.249 54.0533 62.6037C53.7124 61.9584 55.2583 61.2157 57.1206 60.2051C58.9829 59.1945 60.4679 58.3422 60.8209 58.9753Z" fill="#D67C07"/>
<path d="M60.772 54.4946C61.1128 55.1399 60.1878 57.0515 58.3133 58.0499C56.4388 59.0483 54.3452 58.7683 54.0044 58.123C53.6636 57.4777 55.2095 56.7349 57.0718 55.7244C58.9341 54.7138 60.419 53.8615 60.772 54.4946Z" fill="#D67C07"/>
<path d="M52.5552 64.1985C52.896 64.8438 51.971 66.7554 50.0965 67.7538C48.222 68.7522 46.1285 68.4721 45.7876 67.8268C45.4468 67.1815 46.9927 66.4388 48.855 65.4282C50.7173 64.4176 52.2022 63.5654 52.5552 64.1985Z" fill="#D67C07"/>
<path d="M32.3873 42.2581C32.7281 42.9034 31.803 44.8149 29.9285 45.8133C28.0541 46.8117 25.9605 46.5317 25.6197 45.8864C25.2789 45.2411 26.8247 44.4984 28.687 43.4878C30.5493 42.4772 32.0343 41.6249 32.3873 42.2581Z" fill="#FEC102"/>
<path d="M30.9498 35.5615C31.2906 36.2068 30.3655 38.1184 28.491 39.1168C26.6166 40.1152 24.523 39.8352 24.1822 39.1899C23.8414 38.5446 25.3872 37.8018 27.2495 36.7913C29.1118 35.7807 30.5968 34.9284 30.9498 35.5615Z" fill="#FEC102"/>
<path d="M25.6671 52.8386L7.43359 29.8145" stroke="#3C9547" stroke-width="4" stroke-linecap="round" stroke-linejoin="round"/>
</g>
<path d="M67.3312 27.3755L66.4849 27.4789C66.3597 27.4765 66.2369 27.4442 66.1267 27.3847C66.0166 27.3252 65.9223 27.2403 65.8517 27.1369L65.4908 26.44C65.4014 26.2599 65.2968 26.0879 65.1781 25.9256C65.4278 27.0935 65.228 28.3127 64.6188 29.3399C64.0095 30.3672 63.0355 31.1271 61.8908 31.468C61.4343 31.6079 60.9585 31.6748 60.4811 31.6662C60.7108 31.9169 61.004 32.1007 61.3298 32.1981C61.6555 32.2954 62.0015 32.3027 62.3311 32.2192L63.1354 32.1313C63.2612 32.1306 63.385 32.1616 63.4957 32.2213C63.6063 32.2811 63.7002 32.3677 63.7686 32.4732L64.1294 33.1702C64.7873 34.566 65.6844 34.5036 66.1473 34.3622C66.6102 34.2209 67.3824 33.7729 67.2093 32.2562L67.1214 31.4519C67.1238 31.3268 67.156 31.204 67.2155 31.0938C67.2749 30.9837 67.36 30.8894 67.4633 30.8187L68.1605 30.465C69.5553 29.7717 69.529 28.9019 69.3735 28.4394C69.218 27.9769 68.8967 27.1796 67.3312 27.3755Z" fill="#FEC100"/>
<path d="M65.1636 25.9189C64.9942 25.6257 64.7311 25.398 64.4166 25.2727C64.102 25.1473 63.7544 25.1316 63.4298 25.2279C62.9456 25.3699 62.1949 25.8243 62.3965 27.3472L62.4767 28.1305C62.4774 28.2563 62.4464 28.3802 62.3867 28.4908C62.3269 28.6015 62.2403 28.6953 62.1348 28.7637L61.4381 29.1316C60.0428 29.8107 60.069 30.6805 60.2537 31.1705C60.3054 31.3472 60.3896 31.5127 60.5021 31.6585C60.9795 31.667 61.4552 31.6001 61.9118 31.4603C63.0496 31.1122 64.0152 30.3495 64.6175 29.3233C65.2197 28.297 65.4146 27.082 65.1636 25.9189Z" fill="#FFDC00"/>
<path d="M60.7449 14.474L59.7582 13.9837C59.6248 13.8921 59.5152 13.7698 59.4387 13.6273C59.3621 13.4848 59.3208 13.3261 59.318 13.1643L59.4243 12.1556C59.4558 11.8977 59.4653 11.6376 59.4526 11.3781C58.8914 12.816 57.8088 13.9896 56.4208 14.6648C55.0327 15.3401 53.4412 15.4674 51.9634 15.0213C51.3713 14.8475 50.8103 14.5813 50.3012 14.2326C50.3707 14.6664 50.5565 15.0733 50.8388 15.41C51.121 15.7468 51.4892 16.0008 51.9043 16.145L52.8348 16.6221C52.971 16.7108 53.0826 16.8323 53.1595 16.9755C53.2364 17.1187 53.2761 17.2789 53.2749 17.4415L53.1686 18.4502C52.8858 20.4244 53.8983 20.995 54.4984 21.1717C55.0985 21.3484 56.2504 21.4141 57.1422 19.6543L57.6194 18.7238C57.711 18.5905 57.8331 18.4809 57.9756 18.4043C58.1181 18.3278 58.2769 18.2864 58.4387 18.2837L59.4426 18.3978C61.4409 18.6417 62.0311 17.6843 62.1923 17.0746C62.3534 16.4649 62.5736 15.376 60.7449 14.474Z" fill="#FEC100"/>
<path d="M59.441 11.3605C59.4668 10.9236 59.3448 10.4908 59.0945 10.1318C58.8442 9.77285 58.4802 9.50859 58.0614 9.3817C57.4379 9.19063 56.3046 9.14708 55.4391 10.9339L54.9686 11.8362C54.8799 11.9724 54.7584 12.0841 54.6152 12.161C54.472 12.2379 54.3118 12.2776 54.1493 12.2764L53.1358 12.1778C51.1471 11.9184 50.5568 12.8757 50.4076 13.5357C50.3377 13.7632 50.3109 14.0017 50.3285 14.239C50.8377 14.5878 51.3987 14.8539 51.9908 15.0277C53.4663 15.4613 55.0507 15.325 56.4305 14.6459C57.8103 13.9667 58.8847 12.7942 59.441 11.3605Z" fill="#FFDC00"/>
</g>
<defs>
<clipPath id="clip0_9047_28581">
<rect width="80" height="80" fill="white"/>
</clipPath>
<clipPath id="clip1_9047_28581">
<rect width="64" height="61" fill="white" transform="translate(5 13)"/>
</clipPath>
</defs>
</svg>
